<svg width="96" height="96" viewBox="0 0 96 96" fill="none" xmlns="http://www.w3.org/2000/svg">
<path d="M76.4724 68.4661C75.7689 69.178 74.6283 69.178 73.9249 68.4661L55.8642 50.1921C54.7119 49.0263 54.7119 47.1361 55.8642 45.9701L65.2415 36.4822C65.8769 35.8393 66.9071 35.8393 67.5425 36.4822C68.178 37.1251 68.178 38.1675 67.5425 38.8104L60.7128 45.7208C59.5605 46.8866 59.5605 48.777 60.7128 49.9428L63.7779 53.0441C64.9302 54.2101 66.7984 54.2101 67.9506 53.0441L73.8353 47.09C74.4709 46.447 75.5011 46.447 76.1365 47.09C76.7719 47.7329 76.7719 48.7752 76.1365 49.4182L70.2518 55.3723C69.0994 56.5383 69.0994 58.4286 70.2518 59.5945L76.4724 65.8886C77.1759 66.6003 77.1759 67.7544 76.4724 68.4661Z" fill="url(#paint0_linear_374_205)"/>
<path d="M95.1358 50.2347C96.2881 49.0585 96.2881 47.1514 95.1358 45.9751L77.0751 27.5385C76.3716 26.8205 75.231 26.8205 74.5276 27.5385C73.8241 28.2566 73.8241 29.4209 74.5276 30.1391L90.2872 46.2266C91.4395 47.403 91.4395 49.31 90.2872 50.4864L83.7451 57.1646C83.1097 57.8132 83.1097 58.8649 83.7451 59.5135C84.3806 60.1622 85.4108 60.1622 86.0462 59.5135L95.1358 50.2347Z" fill="url(#paint1_linear_374_205)"/>
<path d="M68.4662 74.5277C69.1779 75.2311 69.1779 76.3717 68.4662 77.0751L50.1923 95.1357C49.0264 96.2881 47.1361 96.2881 45.9702 95.1357L36.4822 85.7586C35.8393 85.1232 35.8393 84.0929 36.4822 83.4574C37.1253 82.822 38.1676 82.822 38.8105 83.4574L45.721 90.2872C46.8868 91.4395 48.777 91.4395 49.943 90.2872L53.0443 87.2221C54.2101 86.0699 54.2101 84.2017 53.0443 83.0493L47.0901 77.1646C46.4472 76.5292 46.4472 75.499 47.0901 74.8636C47.733 74.2282 48.7754 74.2282 49.4183 74.8636L55.3725 80.7483C56.5384 81.9005 58.4287 81.9005 59.5945 80.7483L65.8887 74.5277C66.6004 73.8241 67.7545 73.8241 68.4662 74.5277Z" fill="url(#paint2_linear_374_205)"/>
<path d="M50.2347 55.8643C49.0585 54.7119 47.1513 54.7119 45.9751 55.8643L27.5385 73.925C26.8205 74.6284 26.8205 75.769 27.5385 76.4724C28.2566 77.1759 29.4209 77.1759 30.1391 76.4724L46.2266 60.7129C47.403 59.5605 49.31 59.5605 50.4862 60.7129L57.1646 67.255C57.8132 67.8904 58.8649 67.8904 59.5135 67.255C60.1622 66.6196 60.1622 65.5894 59.5135 64.954L50.2347 55.8643Z" fill="url(#paint3_linear_374_205)"/>
<path d="M19.5276 27.5338C20.2311 26.8221 21.3717 26.8221 22.0751 27.5338L40.1358 45.8077C41.2881 46.9737 41.2881 48.8639 40.1358 50.0298L30.7585 59.5178C30.1231 60.1607 29.0929 60.1607 28.4575 59.5178C27.822 58.8749 27.822 57.8325 28.4575 57.1896L35.2872 50.2792C36.4395 49.1132 36.4395 47.223 35.2872 46.057L32.2221 42.9557C31.0698 41.7899 29.2016 41.7899 28.0494 42.9557L22.1647 48.9101C21.5291 49.553 20.4989 49.553 19.8635 48.9101C19.2281 48.267 19.2281 47.2246 19.8635 46.5817L25.7482 40.6275C26.9006 39.4617 26.9006 37.5713 25.7482 36.4055L19.5276 30.1114C18.8241 29.3996 18.8241 28.2455 19.5276 27.5338Z" fill="url(#paint4_linear_374_205)"/>
<path d="M0.864217 45.7653C-0.288073 46.9416 -0.288072 48.8487 0.864217 50.0248L18.9249 68.4613C19.6284 69.1796 20.769 69.1796 21.4724 68.4613C22.1759 67.7433 22.1759 66.579 21.4724 65.8609L5.71277 49.7733C4.5605 48.5972 4.56048 46.69 5.71277 45.5138L12.2549 38.8354C12.8903 38.1868 12.8903 37.1351 12.2549 36.4865C11.6195 35.8378 10.5893 35.8378 9.95385 36.4865L0.864217 45.7653Z" fill="url(#paint5_linear_374_205)"/>
<path d="M68.4662 19.5276C69.1779 20.2311 69.1779 21.3717 68.4662 22.0751L50.1923 40.1358C49.0264 41.2881 47.1361 41.2881 45.9702 40.1358L36.4822 30.7585C35.8393 30.1231 35.8393 29.0929 36.4822 28.4575C37.1253 27.822 38.1676 27.822 38.8105 28.4575L45.721 35.2872C46.8868 36.4395 48.777 36.4395 49.943 35.2872L53.0443 32.2221C54.2101 31.0698 54.2101 29.2016 53.0443 28.0494L47.0901 22.1647C46.4472 21.5291 46.4472 20.4989 47.0901 19.8635C47.733 19.2281 48.7754 19.2281 49.4183 19.8635L55.3725 25.7482C56.5384 26.9006 58.4287 26.9006 59.5945 25.7482L65.8887 19.5276C66.6004 18.8241 67.7545 18.8241 68.4662 19.5276Z" fill="url(#paint6_linear_374_205)"/>
<path d="M50.2347 0.864217C49.0585 -0.288073 47.1513 -0.288072 45.9751 0.864217L27.5385 18.9249C26.8205 19.6284 26.8205 20.769 27.5385 21.4724C28.2566 22.1759 29.4209 22.1759 30.1391 21.4724L46.2266 5.71277C47.403 4.5605 49.31 4.56048 50.4864 5.71277L57.1646 12.2549C57.8132 12.8903 58.8649 12.8903 59.5135 12.2549C60.1622 11.6195 60.1622 10.5893 59.5135 9.95385L50.2347 0.864217Z" fill="url(#paint7_linear_374_205)"/>
<defs>
<linearGradient id="paint0_linear_374_205" x1="64.4882" y1="37.2442" x2="86.1605" y2="58.6636" gradientUnits="userSpaceOnUse">
<stop stop-color="#8E5AF6"/>
<stop offset="1" stop-color="#66FFF7"/>
</linearGradient>
<linearGradient id="paint1_linear_374_205" x1="65.0909" y1="37.1716" x2="86.9529" y2="58.5879" gradientUnits="userSpaceOnUse">
<stop stop-color="#8E5AF6"/>
<stop offset="1" stop-color="#66FFF7"/>
</linearGradient>
<linearGradient id="paint2_linear_374_205" x1="37.2444" y1="86.5117" x2="58.6637" y2="64.8396" gradientUnits="userSpaceOnUse">
<stop stop-color="#8E5AF6"/>
<stop offset="1" stop-color="#66FFF7"/>
</linearGradient>
<linearGradient id="paint3_linear_374_205" x1="37.1716" y1="85.9091" x2="58.5879" y2="64.0472" gradientUnits="userSpaceOnUse">
<stop stop-color="#8E5AF6"/>
<stop offset="1" stop-color="#66FFF7"/>
</linearGradient>
<linearGradient id="paint4_linear_374_205" x1="31.5118" y1="58.7556" x2="9.83952" y2="37.3362" gradientUnits="userSpaceOnUse">
<stop stop-color="#8E5AF6"/>
<stop offset="1" stop-color="#66FFF7"/>
</linearGradient>
<linearGradient id="paint5_linear_374_205" x1="30.9091" y1="58.8283" x2="9.04716" y2="37.412" gradientUnits="userSpaceOnUse">
<stop stop-color="#8E5AF6"/>
<stop offset="1" stop-color="#66FFF7"/>
</linearGradient>
<linearGradient id="paint6_linear_374_205" x1="37.2444" y1="31.5118" x2="58.6638" y2="9.83953" gradientUnits="userSpaceOnUse">
<stop stop-color="#8E5AF6"/>
<stop offset="1" stop-color="#66FFF7"/>
</linearGradient>
<linearGradient id="paint7_linear_374_205" x1="37.1716" y1="30.9091" x2="58.5879" y2="9.04709" gradientUnits="userSpaceOnUse">
<stop stop-color="#8E5AF6"/>
<stop offset="1" stop-color="#66FFF7"/>
</linearGradient>
</defs>
</svg>
