<svg width="285" height="66" viewBox="0 0 285 66" fill="none" xmlns="http://www.w3.org/2000/svg">
<path d="M52.3438 46.6563C51.8669 47.1332 51.0938 47.1332 50.617 46.6563L38.375 34.4143C37.594 33.6333 37.594 32.367 38.375 31.5859L44.7312 25.2298C45.1619 24.7991 45.8602 24.7991 46.2909 25.2298V25.2298C46.7216 25.6605 46.7216 26.3588 46.2909 26.7895L41.6615 31.4189C40.8805 32.1999 40.8805 33.4663 41.6615 34.2473L43.7391 36.3249C44.5202 37.106 45.7865 37.106 46.5675 36.3249L50.5563 32.3361C50.9871 31.9054 51.6854 31.9054 52.1161 32.3361V32.3361C52.5468 32.7668 52.5468 33.4651 52.1161 33.8958L48.1273 37.8846C47.3462 38.6657 47.3462 39.932 48.1273 40.7131L52.3438 44.9296C52.8206 45.4064 52.8206 46.1795 52.3438 46.6563V46.6563Z" fill="url(#paint0_linear_377_457)"/>
<path d="M64.5858 34.4143C65.3668 33.6333 65.3668 32.367 64.5858 31.5859L52.3438 19.3439C51.8669 18.8671 51.0938 18.8671 50.617 19.3439V19.3439C50.1402 19.8207 50.1402 20.5938 50.617 21.0707L61.2993 31.7529C62.0803 32.534 62.0803 33.8003 61.2993 34.5814L56.8649 39.0158C56.4342 39.4465 56.4342 40.1448 56.8649 40.5755V40.5755C57.2956 41.0062 57.9939 41.0062 58.4246 40.5755L64.5858 34.4143Z" fill="url(#paint1_linear_377_457)"/>
<path d="M46.6562 50.6172C47.133 51.094 47.133 51.8671 46.6562 52.3439L34.4142 64.5859C33.6332 65.367 32.3668 65.367 31.5858 64.5859L25.2296 58.2298C24.7989 57.7991 24.7989 57.1008 25.2296 56.67V56.67C25.6604 56.2393 26.3587 56.2393 26.7894 56.67L31.4188 61.2994C32.1998 62.0805 33.4661 62.0805 34.2472 61.2994L36.3248 59.2218C37.1058 58.4408 37.1058 57.1745 36.3248 56.3934L32.336 52.4046C31.9053 51.9739 31.9053 51.2756 32.336 50.8449V50.8449C32.7667 50.4142 33.465 50.4142 33.8957 50.8449L37.8845 54.8337C38.6656 55.6147 39.9319 55.6147 40.7129 54.8337L44.9295 50.6172C45.4063 50.1403 46.1794 50.1403 46.6562 50.6172V50.6172Z" fill="url(#paint2_linear_377_457)"/>
<path d="M34.4142 38.3752C33.6332 37.5941 32.3668 37.5941 31.5858 38.3752L19.3438 50.6172C18.867 51.094 18.867 51.8671 19.3438 52.3439V52.3439C19.8206 52.8207 20.5937 52.8207 21.0706 52.3439L31.7528 41.6617C32.5339 40.8806 33.8002 40.8806 34.5812 41.6617L39.0157 46.0961C39.4464 46.5268 40.1447 46.5268 40.5754 46.0961V46.0961C41.0061 45.6654 41.0061 44.9671 40.5754 44.5364L34.4142 38.3752Z" fill="url(#paint3_linear_377_457)"/>
<path d="M13.6562 19.3439C14.1331 18.8671 14.9062 18.8671 15.383 19.3439L27.625 31.5859C28.406 32.367 28.406 33.6333 27.625 34.4143L21.2688 40.7705C20.8381 41.2012 20.1398 41.2012 19.7091 40.7705V40.7705C19.2784 40.3398 19.2784 39.6415 19.7091 39.2108L24.3385 34.5814C25.1195 33.8003 25.1195 32.534 24.3385 31.7529L22.2609 29.6753C21.4798 28.8943 20.2135 28.8943 19.4325 29.6753L15.4437 33.6642C15.0129 34.0949 14.3146 34.0949 13.8839 33.6642V33.6642C13.4532 33.2334 13.4532 32.5351 13.8839 32.1044L17.8727 28.1156C18.6538 27.3346 18.6538 26.0682 17.8727 25.2872L13.6562 21.0707C13.1794 20.5938 13.1794 19.8207 13.6562 19.3439V19.3439Z" fill="url(#paint4_linear_377_457)"/>
<path d="M1.41424 31.5859C0.633189 32.367 0.63319 33.6333 1.41424 34.4143L13.6562 46.6563C14.1331 47.1332 14.9062 47.1332 15.383 46.6563V46.6563C15.8598 46.1795 15.8598 45.4064 15.383 44.9296L4.70071 34.2473C3.91967 33.4663 3.91966 32.1999 4.70071 31.4189L9.13514 26.9844C9.56585 26.5537 9.56585 25.8554 9.13514 25.4247V25.4247C8.70444 24.994 8.00613 24.994 7.57542 25.4247L1.41424 31.5859Z" fill="url(#paint5_linear_377_457)"/>
<path d="M46.6562 13.6562C47.133 14.1331 47.133 14.9062 46.6562 15.383L34.4142 27.625C33.6332 28.406 32.3668 28.406 31.5858 27.625L25.2296 21.2688C24.7989 20.8381 24.7989 20.1398 25.2296 19.7091V19.7091C25.6604 19.2784 26.3587 19.2784 26.7894 19.7091L31.4188 24.3385C32.1998 25.1195 33.4661 25.1195 34.2472 24.3385L36.3248 22.2609C37.1058 21.4798 37.1058 20.2135 36.3248 19.4325L32.336 15.4437C31.9053 15.0129 31.9053 14.3146 32.336 13.8839V13.8839C32.7667 13.4532 33.465 13.4532 33.8957 13.8839L37.8845 17.8727C38.6656 18.6538 39.9319 18.6538 40.7129 17.8727L44.9295 13.6562C45.4063 13.1794 46.1794 13.1794 46.6562 13.6562V13.6562Z" fill="url(#paint6_linear_377_457)"/>
<path d="M34.4142 1.41424C33.6332 0.633189 32.3668 0.63319 31.5858 1.41424L19.3438 13.6562C18.867 14.1331 18.867 14.9062 19.3438 15.383V15.383C19.8206 15.8598 20.5937 15.8598 21.0706 15.383L31.7528 4.70071C32.5339 3.91967 33.8002 3.91966 34.5813 4.70071L39.0157 9.13514C39.4464 9.56585 40.1447 9.56585 40.5754 9.13514V9.13514C41.0061 8.70444 41.0061 8.00613 40.5754 7.57542L34.4142 1.41424Z" fill="url(#paint7_linear_377_457)"/>
<path d="M86.572 23.68V20.8H97.84V23.68H86.572ZM86.572 33.76V30.88H97.48V33.76H86.572ZM84.88 20.8H87.94V46H84.88V20.8ZM118.18 33.58H121.6L130.6 46H126.82L118.18 33.58ZM113.68 20.8H116.74V46H113.68V20.8ZM115.372 23.5V20.8H120.52C122.152 20.8 123.604 21.112 124.876 21.736C126.172 22.336 127.192 23.2 127.936 24.328C128.704 25.456 129.088 26.8 129.088 28.36C129.088 29.896 128.704 31.24 127.936 32.392C127.192 33.52 126.172 34.396 124.876 35.02C123.604 35.62 122.152 35.92 120.52 35.92H115.372V33.22H120.52C121.6 33.22 122.548 33.028 123.364 32.644C124.204 32.26 124.852 31.708 125.308 30.988C125.788 30.268 126.028 29.392 126.028 28.36C126.028 27.328 125.788 26.452 125.308 25.732C124.852 25.012 124.204 24.46 123.364 24.076C122.548 23.692 121.6 23.5 120.52 23.5H115.372ZM147.037 38.44L148.117 35.56H159.277L160.357 38.44H147.037ZM153.625 26.488L149.377 36.496L149.089 37.144L145.345 46H141.925L153.625 19.54L165.325 46H161.905L158.233 37.36L157.945 36.64L153.625 26.488ZM179.9 33.4C179.9 35.344 180.332 37.06 181.196 38.548C182.084 40.036 183.236 41.2 184.652 42.04C186.068 42.88 187.604 43.3 189.26 43.3C190.46 43.3 191.552 43.144 192.536 42.832C193.544 42.52 194.456 42.088 195.272 41.536C196.088 40.96 196.784 40.3 197.36 39.556V43.588C196.304 44.524 195.152 45.22 193.904 45.676C192.656 46.132 191.108 46.36 189.26 46.36C187.508 46.36 185.864 46.048 184.328 45.424C182.816 44.776 181.484 43.876 180.332 42.724C179.18 41.548 178.28 40.168 177.632 38.584C176.984 37 176.66 35.272 176.66 33.4C176.66 31.528 176.984 29.8 177.632 28.216C178.28 26.632 179.18 25.264 180.332 24.112C181.484 22.936 182.816 22.036 184.328 21.412C185.864 20.764 187.508 20.44 189.26 20.44C191.108 20.44 192.656 20.668 193.904 21.124C195.152 21.58 196.304 22.276 197.36 23.212V27.244C196.784 26.5 196.088 25.852 195.272 25.3C194.456 24.724 193.544 24.28 192.536 23.968C191.552 23.656 190.46 23.5 189.26 23.5C187.604 23.5 186.068 23.92 184.652 24.76C183.236 25.6 182.084 26.764 181.196 28.252C180.332 29.716 179.9 31.432 179.9 33.4ZM209.935 23.68V20.8H225.955V23.68H219.475V46H216.415V23.68H209.935ZM238.815 38.44L239.895 35.56H251.055L252.135 38.44H238.815ZM245.403 26.488L241.155 36.496L240.867 37.144L237.123 46H233.703L245.403 19.54L257.103 46H253.683L250.011 37.36L249.723 36.64L245.403 26.488ZM270.969 20.8H274.029V43.12H283.929V46H270.969V20.8Z" fill="white"/>
<defs>
<linearGradient id="paint0_linear_377_457" x1="44.2206" y1="25.7403" x2="58.7402" y2="40.2599" gradientUnits="userSpaceOnUse">
<stop stop-color="#8E5AF6"/>
<stop offset="1" stop-color="#66FFF7"/>
</linearGradient>
<linearGradient id="paint1_linear_377_457" x1="44.2206" y1="25.7403" x2="58.7402" y2="40.2599" gradientUnits="userSpaceOnUse">
<stop stop-color="#8E5AF6"/>
<stop offset="1" stop-color="#66FFF7"/>
</linearGradient>
<linearGradient id="paint2_linear_377_457" x1="25.7402" y1="58.7403" x2="40.2598" y2="44.2208" gradientUnits="userSpaceOnUse">
<stop stop-color="#8E5AF6"/>
<stop offset="1" stop-color="#66FFF7"/>
</linearGradient>
<linearGradient id="paint3_linear_377_457" x1="25.7402" y1="58.7403" x2="40.2598" y2="44.2208" gradientUnits="userSpaceOnUse">
<stop stop-color="#8E5AF6"/>
<stop offset="1" stop-color="#66FFF7"/>
</linearGradient>
<linearGradient id="paint4_linear_377_457" x1="21.7794" y1="40.2599" x2="7.25981" y2="25.7403" gradientUnits="userSpaceOnUse">
<stop stop-color="#8E5AF6"/>
<stop offset="1" stop-color="#66FFF7"/>
</linearGradient>
<linearGradient id="paint5_linear_377_457" x1="21.7794" y1="40.2599" x2="7.25981" y2="25.7403" gradientUnits="userSpaceOnUse">
<stop stop-color="#8E5AF6"/>
<stop offset="1" stop-color="#66FFF7"/>
</linearGradient>
<linearGradient id="paint6_linear_377_457" x1="25.7402" y1="21.7794" x2="40.2598" y2="7.25981" gradientUnits="userSpaceOnUse">
<stop stop-color="#8E5AF6"/>
<stop offset="1" stop-color="#66FFF7"/>
</linearGradient>
<linearGradient id="paint7_linear_377_457" x1="25.7402" y1="21.7794" x2="40.2598" y2="7.25981" gradientUnits="userSpaceOnUse">
<stop stop-color="#8E5AF6"/>
<stop offset="1" stop-color="#66FFF7"/>
</linearGradient>
</defs>
</svg>
